<?xml version="1.0" encoding="UTF-8" standalone="no"?>
<!-- Created with Inkscape (http://www.inkscape.org/) -->

<svg
   xmlns:dc="http://purl.org/dc/elements/1.1/"
   xmlns:cc="http://creativecommons.org/ns#"
   xmlns:rdf="http://www.w3.org/1999/02/22-rdf-syntax-ns#"
   xmlns:svg="http://www.w3.org/2000/svg"
   xmlns="http://www.w3.org/2000/svg"
   xmlns:sodipodi="http://sodipodi.sourceforge.net/DTD/sodipodi-0.dtd"
   xmlns:inkscape="http://www.inkscape.org/namespaces/inkscape"
   width="297mm"
   height="210mm"
   viewBox="0 0 1052.3622 744.09448"
   id="svg2"
   version="1.1"
   inkscape:version="0.91 r13725"
   sodipodi:docname="noimage.svg"
   inkscape:export-filename="/Users/yusuke/Desktop/aa.png"
   inkscape:export-xdpi="90"
   inkscape:export-ydpi="90">
  <defs
     id="defs4" />
  <sodipodi:namedview
     id="base"
     pagecolor="#ffffff"
     bordercolor="#666666"
     borderopacity="1.0"
     inkscape:pageopacity="0.0"
     inkscape:pageshadow="2"
     inkscape:zoom="0.35"
     inkscape:cx="474.63308"
     inkscape:cy="283.08203"
     inkscape:document-units="px"
     inkscape:current-layer="layer1"
     showgrid="false"
     inkscape:window-width="1440"
     inkscape:window-height="809"
     inkscape:window-x="0"
     inkscape:window-y="1"
     inkscape:window-maximized="1" />
  <metadata
     id="metadata7">
    <rdf:RDF>
      <cc:Work
         rdf:about="">
        <dc:format>image/svg+xml</dc:format>
        <dc:type
           rdf:resource="http://purl.org/dc/dcmitype/StillImage" />
        <dc:title />
      </cc:Work>
    </rdf:RDF>
  </metadata>
  <g
     inkscape:label="Layer 1"
     inkscape:groupmode="layer"
     id="layer1"
     transform="translate(0,-308.26772)">
    <path
       style="fill:#2f3330;fill-opacity:0.26397514;fill-rule:evenodd;stroke:none;stroke-width:1px;stroke-linecap:butt;stroke-linejoin:miter;stroke-opacity:1"
       d="m -57.14286,292.36221 1191.42856,0 0,779.99999 -1191.42856,0 z"
       id="rect3336" />
    <g
       transform="matrix(6.4042189,0,0,6.6062389,7087.835,-608.6137)"
       style="font-style:normal;font-weight:normal;font-size:40px;line-height:125%;font-family:sans-serif;letter-spacing:0px;word-spacing:0px;fill:#000000;fill-opacity:0.26708075;stroke:none;stroke-width:1px;stroke-linecap:butt;stroke-linejoin:miter;stroke-opacity:1"
       id="flowRoot4157">
      <g
         transform="matrix(0.15614707,0,0,0.15137206,-934.09056,177.71447)"
         style="font-style:normal;font-variant:normal;font-weight:normal;font-stretch:normal;font-size:60px;line-height:125%;font-family:'Times New Roman';-inkscape-font-specification:'Times New Roman, Normal';text-align:start;letter-spacing:0px;word-spacing:0px;writing-mode:lr-tb;text-anchor:start;fill:#000000;fill-opacity:0.26708075;stroke:none;stroke-width:1px;stroke-linecap:butt;stroke-linejoin:miter;stroke-opacity:1"
         id="flowRoot4158">
        <path
           d="m -729.49512,85.553949 12.57813,0 28.33496,34.760741 0,-26.728514 q 0,-4.272461 -0.95703,-5.332031 -1.26465,-1.435547 -3.99903,-1.435547 l -1.60644,0 0,-1.264649 16.13281,0 0,1.264649 -1.64062,0 q -2.93946,0 -4.16993,1.777344 -0.75195,1.09375 -0.75195,4.990234 l 0,39.067384 -1.23047,0 -30.55664,-37.32422 0,28.54004 q 0,4.27246 0.92285,5.33203 1.29883,1.43555 3.99903,1.43555 l 1.64062,0 0,1.26465 -16.13281,0 0,-1.26465 1.60644,0 q 2.97364,0 4.20411,-1.77735 0.75195,-1.09375 0.75195,-4.99023 l 0,-32.231446 q -2.0166,-2.358399 -3.07617,-3.110352 -1.02539,-0.751953 -3.04199,-1.401367 -0.99122,-0.307617 -3.00782,-0.307617 l 0,-1.264649 z"
           style="font-style:normal;font-variant:normal;font-weight:normal;font-stretch:normal;font-size:70px;line-height:125%;font-family:'Times New Roman';-inkscape-font-specification:'Times New Roman, Normal';text-align:start;writing-mode:lr-tb;text-anchor:start;stroke:none;stroke-opacity:1;fill:#000000;fill-opacity:0.26708075"
           id="path4179" />
        <path
           d="m -660.48633,99.67016 q 7.10938,0 11.41602,5.40039 3.65722,4.61426 3.65722,10.5957 0,4.20411 -2.0166,8.51075 -2.0166,4.30664 -5.57129,6.49414 -3.5205,2.1875 -7.86132,2.1875 -7.0752,0 -11.24512,-5.63965 -3.52051,-4.75098 -3.52051,-10.66406 0,-4.30664 2.11914,-8.54493 2.15332,-4.27246 5.63965,-6.28906 3.48633,-2.05078 7.38281,-2.05078 z m -1.05957,2.22168 q -1.81152,0 -3.65722,1.09375 -1.81153,1.05957 -2.93946,3.75977 -1.12793,2.70019 -1.12793,6.93847 0,6.83594 2.7002,11.79199 2.73437,4.95606 7.17773,4.95606 3.31543,0 5.46875,-2.73438 2.15332,-2.73437 2.15332,-9.39941 0,-8.33984 -3.58886,-13.125 -2.42676,-3.28125 -6.18653,-3.28125 z"
           style="font-style:normal;font-variant:normal;font-weight:normal;font-stretch:normal;font-size:70px;line-height:125%;font-family:'Times New Roman';-inkscape-font-specification:'Times New Roman, Normal';text-align:start;writing-mode:lr-tb;text-anchor:start;stroke:none;stroke-opacity:1;fill:#000000;fill-opacity:0.26708075"
           id="path4181" />
        <path
           d="m -603.88477,130.63696 0,1.26465 -19.85839,0 0,-1.26465 1.64062,0 q 2.87109,0 4.16992,-1.67481 0.82032,-1.09375 0.82032,-5.26367 l 0,-29.941406 q 0,-3.520507 -0.44434,-4.648437 -0.3418,-0.854492 -1.40137,-1.469727 -1.5039,-0.820312 -3.14453,-0.820312 l -1.64062,0 0,-1.264649 19.85839,0 0,1.264649 -1.6748,0 q -2.83691,0 -4.13574,1.674805 -0.85449,1.09375 -0.85449,5.263671 l 0,29.941406 q 0,3.52051 0.44433,4.64844 0.3418,0.85449 1.43555,1.46972 1.46972,0.82032 3.11035,0.82032 l 1.6748,0 z"
           style="font-style:normal;font-variant:normal;font-weight:normal;font-stretch:normal;font-size:70px;line-height:125%;font-family:'Times New Roman';-inkscape-font-specification:'Times New Roman, Normal';text-align:start;writing-mode:lr-tb;text-anchor:start;stroke:none;stroke-opacity:1;fill:#000000;fill-opacity:0.26708075"
           id="path4183" />
        <path
           d="m -590.62305,106.3352 q 3.41797,-3.41797 4.03321,-3.93066 1.53808,-1.29883 3.31543,-2.01661 1.77734,-0.71777 3.5205,-0.71777 2.93946,0 5.0586,1.70898 2.11914,1.70899 2.83691,4.95606 3.52051,-4.10156 5.94727,-5.36621 2.42676,-1.29883 4.99023,-1.29883 2.49512,0 4.40918,1.29883 1.94824,1.26465 3.07617,4.16992 0.75196,1.98242 0.75196,6.2207 l 0,13.4668 q 0,2.93945 0.44433,4.0332 0.3418,0.75196 1.26465,1.29883 0.92285,0.5127 3.00781,0.5127 l 0,1.23047 -15.44922,0 0,-1.23047 0.64942,0 q 2.0166,0 3.14453,-0.78614 0.78613,-0.54687 1.12793,-1.74316 0.13672,-0.58105 0.13672,-3.31543 l 0,-13.4668 q 0,-3.82812 -0.92285,-5.40039 -1.33301,-2.1875 -4.27246,-2.1875 -1.81153,0 -3.65723,0.92285 -1.81152,0.88868 -4.40918,3.34961 l -0.0684,0.37598 0.0684,1.46973 0,14.93652 q 0,3.21289 0.3418,3.99902 0.37597,0.78614 1.36718,1.33301 0.99121,0.5127 3.38379,0.5127 l 0,1.23047 -15.82519,0 0,-1.23047 q 2.59765,0 3.55469,-0.61524 0.99121,-0.61523 1.36718,-1.8457 0.1709,-0.58106 0.1709,-3.38379 l 0,-13.4668 q 0,-3.82812 -1.12793,-5.50293 -1.5039,-2.1875 -4.2041,-2.1875 -1.8457,0 -3.65723,0.99121 -2.83691,1.50391 -4.375,3.38379 l 0,16.78223 q 0,3.07617 0.41016,3.99902 0.44434,0.92286 1.26465,1.40137 0.85449,0.44434 3.41797,0.44434 l 0,1.23047 -15.4834,0 0,-1.23047 q 2.15332,0 3.00781,-0.44434 0.85449,-0.47851 1.29883,-1.46973 0.44433,-1.02539 0.44433,-3.93066 l 0,-11.96289 q 0,-5.16113 -0.30761,-6.66504 -0.23926,-1.12793 -0.75196,-1.53809 -0.51269,-0.44433 -1.40136,-0.44433 -0.95703,0 -2.29004,0.51269 l -0.5127,-1.23046 9.4336,-3.82813 1.46972,0 0,6.66504 z"
           style="font-style:normal;font-variant:normal;font-weight:normal;font-stretch:normal;font-size:70px;line-height:125%;font-family:'Times New Roman';-inkscape-font-specification:'Times New Roman, Normal';text-align:start;writing-mode:lr-tb;text-anchor:start;stroke:none;stroke-opacity:1;fill:#000000;fill-opacity:0.26708075"
           id="path4185" />
        <path
           d="m -527.7666,127.38989 q -4.81934,3.72558 -6.04981,4.30664 -1.8457,0.85449 -3.93066,0.85449 -3.24707,0 -5.36621,-2.22168 -2.08496,-2.22168 -2.08496,-5.84473 0,-2.29004 1.02539,-3.96484 1.40137,-2.32422 4.85351,-4.375 3.48633,-2.05078 11.55274,-4.99023 l 0,-1.23047 q 0,-4.68262 -1.50391,-6.42578 -1.46972,-1.74317 -4.30664,-1.74317 -2.15332,0 -3.41797,1.16211 -1.29883,1.16211 -1.29883,2.66602 l 0.0684,1.98242 q 0,1.57226 -0.82031,2.42676 -0.78613,0.85449 -2.08496,0.85449 -1.26465,0 -2.08496,-0.88867 -0.78613,-0.88868 -0.78613,-2.42676 0,-2.93945 3.00781,-5.40039 3.00781,-2.46094 8.44238,-2.46094 4.16992,0 6.83594,1.40137 2.0166,1.05957 2.97363,3.31543 0.61524,1.46972 0.61524,6.01562 l 0,10.62989 q 0,4.47753 0.1709,5.50292 0.17089,0.99122 0.54687,1.33301 0.41016,0.3418 0.92285,0.3418 0.54688,0 0.95703,-0.23926 0.71778,-0.44433 2.76856,-2.49512 l 0,1.91407 q -3.82813,5.12695 -7.31446,5.12695 -1.6748,0 -2.66601,-1.16211 -0.99121,-1.16211 -1.02539,-3.96484 z m 0,-2.22168 0,-11.92871 q -5.16113,2.05078 -6.66504,2.90527 -2.7002,1.50391 -3.86231,3.14453 -1.1621,1.64063 -1.1621,3.58887 0,2.46094 1.46972,4.10156 1.46973,1.60645 3.38379,1.60645 2.59766,0 6.83594,-3.41797 z"
           style="font-style:normal;font-variant:normal;font-weight:normal;font-stretch:normal;font-size:70px;line-height:125%;font-family:'Times New Roman';-inkscape-font-specification:'Times New Roman, Normal';text-align:start;writing-mode:lr-tb;text-anchor:start;stroke:none;stroke-opacity:1;fill:#000000;fill-opacity:0.26708075"
           id="path4187" />
        <path
           d="m -506.09668,120.48559 q -2.87109,-1.40137 -4.40918,-3.89648 -1.53809,-2.5293 -1.53809,-5.57129 0,-4.64844 3.48633,-7.99805 3.52051,-3.34961 8.98926,-3.34961 4.47754,0 7.75879,2.1875 l 6.63086,0 q 1.46973,0 1.70898,0.10254 0.23926,0.0684 0.3418,0.27344 0.20508,0.30761 0.20508,1.09375 0,0.88867 -0.1709,1.23047 -0.10254,0.17089 -0.37598,0.27343 -0.23925,0.10254 -1.70898,0.10254 l -4.06738,0 q 1.91406,2.46094 1.91406,6.28906 0,4.375 -3.34961,7.48536 -3.34961,3.11035 -8.98926,3.11035 -2.32422,0 -4.75097,-0.6836 -1.50391,1.29883 -2.05079,2.29004 -0.51269,0.95703 -0.51269,1.64063 0,0.58105 0.54687,1.12793 0.58106,0.54687 2.22168,0.78613 0.95703,0.13672 4.78516,0.23926 7.04102,0.1709 9.12598,0.47851 3.17871,0.44434 5.05859,2.3584 1.91406,1.91407 1.91406,4.7168 0,3.8623 -3.62304,7.24609 -5.33204,4.99024 -13.91114,4.99024 -6.59668,0 -11.14258,-2.97364 -2.56347,-1.70898 -2.56347,-3.55468 0,-0.82032 0.37597,-1.64063 0.58106,-1.26465 2.39258,-3.52051 0.23926,-0.30761 3.48633,-3.6914 -1.77734,-1.05957 -2.5293,-1.87988 -0.71777,-0.8545 -0.71777,-1.91407 0,-1.19629 0.95703,-2.80273 0.99121,-1.60645 4.51172,-4.5459 z m 5.94727,-19.1748 q -2.5293,0 -4.23829,2.0166 -1.70898,2.0166 -1.70898,6.18652 0,5.40039 2.32422,8.37402 1.77734,2.25586 4.51172,2.25586 2.59765,0 4.27246,-1.94824 1.6748,-1.94824 1.6748,-6.11816 0,-5.43457 -2.35839,-8.51075 -1.74317,-2.25585 -4.47754,-2.25585 z m -6.28907,30.59082 q -1.60644,1.74316 -2.42675,3.24707 -0.82032,1.5039 -0.82032,2.76855 0,1.64063 1.98243,2.87109 3.41796,2.11915 9.87792,2.11915 6.15235,0 9.05762,-2.1875 2.93946,-2.15333 2.93946,-4.61426 0,-1.77735 -1.74317,-2.5293 -1.77734,-0.75195 -7.04101,-0.88867 -7.69043,-0.20508 -11.82618,-0.78613 z"
           style="font-style:normal;font-variant:normal;font-weight:normal;font-stretch:normal;font-size:70px;line-height:125%;font-family:'Times New Roman';-inkscape-font-specification:'Times New Roman, Normal';text-align:start;writing-mode:lr-tb;text-anchor:start;stroke:none;stroke-opacity:1;fill:#000000;fill-opacity:0.26708075"
           id="path4189" />
        <path
           d="m -474.20703,112.385 q -0.0342,6.97266 3.38379,10.9375 3.41797,3.96485 8.03222,3.96485 3.07618,0 5.33204,-1.67481 2.29003,-1.70898 3.82812,-5.81054 l 1.05957,0.68359 q -0.71777,4.68262 -4.16992,8.54492 -3.45215,3.82813 -8.64746,3.82813 -5.63965,0 -9.67285,-4.375 -3.99903,-4.40918 -3.99903,-11.82617 0,-8.03223 4.10157,-12.50977 4.13574,-4.511719 10.35644,-4.511719 5.26367,0 8.64746,3.486329 3.38379,3.45215 3.38379,9.26269 l -21.63574,0 z m 0,-1.98242 14.49219,0 q -0.1709,-3.00781 -0.71778,-4.23828 -0.85449,-1.91406 -2.56347,-3.00781 -1.67481,-1.09375 -3.52051,-1.09375 -2.83692,0 -5.09277,2.22168 -2.22168,2.1875 -2.59766,6.11816 z"
           style="font-style:normal;font-variant:normal;font-weight:normal;font-stretch:normal;font-size:70px;line-height:125%;font-family:'Times New Roman';-inkscape-font-specification:'Times New Roman, Normal';text-align:start;writing-mode:lr-tb;text-anchor:start;stroke:none;stroke-opacity:1;fill:#000000;fill-opacity:0.26708075"
           id="path4191" />
      </g>
      <g
         style="font-style:normal;font-weight:normal;font-size:40px;line-height:125%;font-family:sans-serif;letter-spacing:0px;word-spacing:0px;fill:#000000;fill-opacity:0.26708075;stroke:none;stroke-width:1px;stroke-linecap:butt;stroke-linejoin:miter;stroke-opacity:1"
         id="flowRoot4170" />
    </g>
  </g>
</svg>
